<mxfile host="app.diagrams.net" modified="2021-08-10T06:17:28.164Z" agent="5.0 (Windows NT 10.0; Win64; x64) AppleWebKit/537.36 (KHTML, like Gecko) Chrome/92.0.4515.131 Safari/537.36" etag="HUqChb7pfvGNvYK97KZ_" version="14.8.4" type="github">
  <diagram id="jcA4l2yN_aHXy52bOgLL" name="Page-1">
    <mxGraphModel dx="1422" dy="800" grid="1" gridSize="10" guides="1" tooltips="1" connect="1" arrows="1" fold="1" page="1" pageScale="1" pageWidth="827" pageHeight="1169" math="0" shadow="0">
      <root>
        <mxCell id="0" />
        <mxCell id="1" parent="0" />
        <mxCell id="YTsj4Lx7nk5T5PU6PYr4-16" value="" style="rounded=0;whiteSpace=wrap;html=1;fillColor=none;sketch=1;strokeColor=#006658;fontColor=#5C5C5C;" vertex="1" parent="1">
          <mxGeometry x="20" y="50" width="720" height="550" as="geometry" />
        </mxCell>
        <mxCell id="YTsj4Lx7nk5T5PU6PYr4-8" style="rounded=0;orthogonalLoop=1;jettySize=auto;html=1;exitX=0;exitY=1;exitDx=0;exitDy=0;entryX=1;entryY=0;entryDx=0;entryDy=0;sketch=1;strokeColor=#006658;fontColor=#5C5C5C;" edge="1" parent="1" source="YTsj4Lx7nk5T5PU6PYr4-1" target="YTsj4Lx7nk5T5PU6PYr4-2">
          <mxGeometry relative="1" as="geometry" />
        </mxCell>
        <mxCell id="YTsj4Lx7nk5T5PU6PYr4-10" style="edgeStyle=none;rounded=0;orthogonalLoop=1;jettySize=auto;html=1;exitX=1;exitY=1;exitDx=0;exitDy=0;entryX=0;entryY=0;entryDx=0;entryDy=0;sketch=1;strokeColor=#006658;fontColor=#5C5C5C;" edge="1" parent="1" source="YTsj4Lx7nk5T5PU6PYr4-1" target="YTsj4Lx7nk5T5PU6PYr4-3">
          <mxGeometry relative="1" as="geometry" />
        </mxCell>
        <mxCell id="YTsj4Lx7nk5T5PU6PYr4-1" value="VID" style="ellipse;whiteSpace=wrap;html=1;aspect=fixed;sketch=1;fillColor=#1ba1e2;strokeColor=#006EAF;fontColor=#000066;" vertex="1" parent="1">
          <mxGeometry x="320" y="200" width="80" height="80" as="geometry" />
        </mxCell>
        <mxCell id="YTsj4Lx7nk5T5PU6PYr4-9" style="edgeStyle=none;rounded=0;orthogonalLoop=1;jettySize=auto;html=1;exitX=1;exitY=0.5;exitDx=0;exitDy=0;entryX=0;entryY=0.5;entryDx=0;entryDy=0;sketch=1;strokeColor=#006658;fontColor=#5C5C5C;" edge="1" parent="1" source="YTsj4Lx7nk5T5PU6PYr4-2" target="YTsj4Lx7nk5T5PU6PYr4-3">
          <mxGeometry relative="1" as="geometry" />
        </mxCell>
        <mxCell id="YTsj4Lx7nk5T5PU6PYr4-2" value="VID" style="ellipse;whiteSpace=wrap;html=1;aspect=fixed;sketch=1;fillColor=#21C0A5;strokeColor=#006658;fontColor=#5C5C5C;" vertex="1" parent="1">
          <mxGeometry x="160" y="360" width="80" height="80" as="geometry" />
        </mxCell>
        <mxCell id="YTsj4Lx7nk5T5PU6PYr4-3" value="VID" style="ellipse;whiteSpace=wrap;html=1;aspect=fixed;sketch=1;fillColor=#21C0A5;strokeColor=#006658;fontColor=#5C5C5C;" vertex="1" parent="1">
          <mxGeometry x="480" y="360" width="80" height="80" as="geometry" />
        </mxCell>
        <mxCell id="YTsj4Lx7nk5T5PU6PYr4-11" style="edgeStyle=none;rounded=0;orthogonalLoop=1;jettySize=auto;html=1;exitX=0.5;exitY=1;exitDx=0;exitDy=0;entryX=0.5;entryY=0;entryDx=0;entryDy=0;sketch=1;fontColor=#5C5C5C;strokeColor=#607FBF;" edge="1" parent="1" source="YTsj4Lx7nk5T5PU6PYr4-4" target="YTsj4Lx7nk5T5PU6PYr4-1">
          <mxGeometry relative="1" as="geometry" />
        </mxCell>
        <mxCell id="YTsj4Lx7nk5T5PU6PYr4-4" value="" style="rounded=1;whiteSpace=wrap;html=1;sketch=1;fillColor=#dae8fc;strokeColor=#607FBF;" vertex="1" parent="1">
          <mxGeometry x="310" y="120" width="100" height="30" as="geometry" />
        </mxCell>
        <mxCell id="YTsj4Lx7nk5T5PU6PYr4-12" style="edgeStyle=none;rounded=0;orthogonalLoop=1;jettySize=auto;html=1;exitX=0.5;exitY=0;exitDx=0;exitDy=0;entryX=0;entryY=1;entryDx=0;entryDy=0;sketch=1;fontColor=#5C5C5C;strokeColor=#607FBF;" edge="1" parent="1" source="YTsj4Lx7nk5T5PU6PYr4-5" target="YTsj4Lx7nk5T5PU6PYr4-2">
          <mxGeometry relative="1" as="geometry" />
        </mxCell>
        <mxCell id="YTsj4Lx7nk5T5PU6PYr4-5" value="" style="rounded=1;whiteSpace=wrap;html=1;sketch=1;fillColor=#dae8fc;strokeColor=#607FBF;" vertex="1" parent="1">
          <mxGeometry x="100" y="470" width="100" height="30" as="geometry" />
        </mxCell>
        <mxCell id="YTsj4Lx7nk5T5PU6PYr4-13" style="edgeStyle=none;rounded=0;orthogonalLoop=1;jettySize=auto;html=1;exitX=0.5;exitY=0;exitDx=0;exitDy=0;entryX=0.5;entryY=1;entryDx=0;entryDy=0;sketch=1;fontColor=#5C5C5C;strokeColor=#607FBF;" edge="1" parent="1" source="YTsj4Lx7nk5T5PU6PYr4-6" target="YTsj4Lx7nk5T5PU6PYr4-3">
          <mxGeometry relative="1" as="geometry" />
        </mxCell>
        <mxCell id="YTsj4Lx7nk5T5PU6PYr4-6" value="" style="rounded=1;whiteSpace=wrap;html=1;sketch=1;fillColor=#dae8fc;strokeColor=#607FBF;" vertex="1" parent="1">
          <mxGeometry x="470" y="470" width="100" height="30" as="geometry" />
        </mxCell>
        <mxCell id="YTsj4Lx7nk5T5PU6PYr4-14" style="edgeStyle=none;rounded=0;orthogonalLoop=1;jettySize=auto;html=1;exitX=0;exitY=0.5;exitDx=0;exitDy=0;entryX=1;entryY=0.5;entryDx=0;entryDy=0;sketch=1;fontColor=#5C5C5C;strokeColor=#607FBF;" edge="1" parent="1" source="YTsj4Lx7nk5T5PU6PYr4-7" target="YTsj4Lx7nk5T5PU6PYr4-3">
          <mxGeometry relative="1" as="geometry" />
        </mxCell>
        <mxCell id="YTsj4Lx7nk5T5PU6PYr4-7" value="" style="rounded=1;whiteSpace=wrap;html=1;sketch=1;fillColor=#dae8fc;strokeColor=#607FBF;" vertex="1" parent="1">
          <mxGeometry x="600" y="385" width="100" height="30" as="geometry" />
        </mxCell>
        <mxCell id="YTsj4Lx7nk5T5PU6PYr4-17" value="Edge type" style="rounded=0;whiteSpace=wrap;html=1;sketch=0;fontColor=#000066;strokeColor=#607FBF;fillColor=#21C0A5;rotation=-45;" vertex="1" parent="1">
          <mxGeometry x="140" y="240" width="120" height="40" as="geometry" />
        </mxCell>
      </root>
    </mxGraphModel>
  </diagram>
</mxfile>
